<?xml version="1.0" standalone="no"?>
<!DOCTYPE svg PUBLIC "-//W3C//DTD SVG 1.1//EN" "http://www.w3.org/Graphics/SVG/1.1/DTD/svg11.dtd">
<svg width="171.35833333333346mm" height="665.0000000000002mm"
 viewBox="0 0 171.35833333333346 665.0000000000002"
 xmlns="http://www.w3.org/2000/svg" version="1.1"
 xmlns:xlink="http://www.w3.org/1999/xlink">
<desc>Output from Flights of Ideas SVG Sketchup Plugin</desc>

  <path id="face0-cut"
 style="fill:none;stroke:#0000FF;stroke-width:1;stroke-miterlimit:4;stroke-dasharray:none;stroke-linejoin:round;stroke-linecap:round"
        d="M 48.099999999999454,10.0 L 10.0,10.000000000000005 L 10.0,340.20000000000016 L 48.100000000000136,340.2000000000002 L 48.10000000000002,338.8500000000002 L 48.0572243068691,338.1973690389008 L 47.92962913144538,337.55590477448806 L 47.7193976625565,336.93658283817524 L 47.430127018922235,336.35 L 47.06676670145623,335.8061928549564 L 46.63553390593279,335.31446609406777 L 46.14380714504375,334.8832332985447 L 45.60000000000002,334.5198729810782 L 45.01341716182549,334.2306023374446 L 44.39409522551273,334.0203708685549 L 43.752630961100294,333.89277569313106 L 43.100000000000136,333.8500000000006 L 35.40000000000009,333.8500000000006 L 35.40000000000009,326.3500000000005 L 43.10000000000002,326.3500000000004 L 43.68249760528374,326.38719607210686 L 44.26486692446235,326.3480427322642 L 44.837143457021625,326.2332099049731 L 45.38953539282397,326.044662411747 L 45.91259115269622,325.78562635246914 L 46.39736110756826,325.4605339059334 L 46.8355507091087,325.0749474940316 L 47.219662411746185,324.63546460717663 L 47.54312395775253,324.1496049194101 L 47.80040083039523,323.6256816246953 L 47.98709095105244,323.07265919586445 L 48.09999999999991,322.49999999999994 L 48.100000000000136,183.27500000000038 L 47.98099239837313,182.70929487067934 L 47.789163586825794,182.16396303624595 L 47.5277958095088,181.6483352755836 L 47.20136114155707,181.17123412263567 L 46.81544497064385,180.7408229104052 L 46.37665042944957,180.36446609406727 L 45.89248541423126,180.04860324309587 L 45.371234122634746,179.79863885844293 L 44.821815308777786,179.6188499000353 L 44.253629680892914,179.51231260679643 L 43.67639905260421,179.48084986135225 L 43.100000000000136,179.52500000000055 L 35.40000000000009,179.52500000000035 L 35.40000000000009,172.02500000000023 L 43.100000000000136,172.02500000000043 L 43.75872951378017,171.9752702403268 L 44.405332469082396,171.83998447050539 L 45.02874531006944,171.62145746756354 L 45.61830127018948,171.32342828911152 L 46.16391288350883,170.95099629702025 L 46.65624458405159,170.5105339059331 L 47.08687243992131,170.00957754947925 L 47.448428289111575,169.45669872981117 L 47.734725810800455,168.86135735681796 L 47.94086637501516,168.23373988645386 L 48.063322859548975,167.58458502764304 L 48.10000000000025,166.92500000000032 L 48.10000000000025,27.700000000000127 L 47.98709095105278,27.127340804136146 L 47.80040083039535,26.574318375305037 L 47.543123957752755,26.050395080590395 L 47.21966241174641,25.564535392824123 L 46.83555070910893,25.125052505969133 L 46.397361107568486,24.739466094067204 L 45.912591152696336,24.414373647531555 L 45.3895353928242,24.155337588253772 L 44.83714345702174,23.966790095027537 L 44.264866924462694,23.85195726773682 L 43.68249760528397,23.812803927894066 L 43.100000000000136,23.84999999999992 L 35.40000000000009,23.84999999999983 L 35.40000000000009,16.34999999999991 L 43.100000000000136,16.34999999999982 L 43.75263096110041,16.3072243068688 L 44.39409522551273,16.179629131445335 L 45.0134171618256,15.969397662556062 L 45.600000000000136,15.680127018921905 L 46.14380714504375,15.316766701455935 L 46.6355339059329,14.885533905932576 L 47.066766701456345,14.393807145043116 L 47.43012701892235,13.849999999999664 L 47.7193976625565,13.263417161825288 L 47.929629131445495,12.644095225512453 L 48.057224306869216,12.002630961100092 L 48.100000000000136,11.349999999999604 L 48.099999999999454,10.0 "
  />
  <path id="face1-cut"
 style="fill:none;stroke:#0000FF;stroke-width:1;stroke-miterlimit:4;stroke-dasharray:none;stroke-linejoin:round;stroke-linecap:round"
        d="M 157.2926455532786,350.2000000000002 L 15.000000000000114,350.2000000000002 L 14.347362638688764,350.2000000000002 L 13.705904774487522,350.37037086854957 L 13.08658283817465,350.5806023374467 L 12.5,350.86987298108096 L 11.956192854956498,351.23323329854384 L 11.464466094067348,351.664466094066 L 11.033233298543905,352.1561928549558 L 10.669872981077901,352.700000000001 L 10.380602337443634,353.286582838175 L 10.170370868554755,353.90590477448836 L 10.042775693131034,354.5473690389005 L 10.0,355.2000000000001 L 10.0,402.35000000000036 L 10.077842371039196,402.9626450784824 L 10.234985019079772,403.55988842510413 L 10.468739189845564,404.131511040618 L 10.775105284665756,404.6677323035884 L 11.148841294717613,405.1593773195376 L 11.583552493249385,405.5980339059331 L 12.071800851130092,405.9761965269629 L 12.605232303588082,406.2873947153346 L 13.174719690576467,406.5263037837649 L 13.770518925012425,406.68883593185456 L 14.382435716808004,406.7722101894878 L 15.0,406.7750000000004 L 35.39999999999998,406.7750000000003 L 35.39999999999998,414.2750000000002 L 15.000000000000114,414.2750000000002 L 14.382435716808118,414.27778981051296 L 13.770518925012539,414.36116406814614 L 13.17471969057658,414.52369621623603 L 12.605232303588082,414.7626052846661 L 12.071800851130206,415.07380347303786 L 11.583552493249613,415.45196609406764 L 11.148841294717613,415.890622680463 L 10.77510528466587,416.3822676964123 L 10.468739189845564,416.9184889593829 L 10.234985019079886,417.49011157489656 L 10.07784237103931,418.08735492151834 L 10.0,418.70000000000044 L 10.0,484.9000000000004 L 10.077842371039196,485.5126450784824 L 10.234985019079886,486.10988842510415 L 10.46873918984545,486.68151104061786 L 10.775105284665756,487.21773230358843 L 11.148841294717613,487.7093773195377 L 11.583552493249499,488.1480339059331 L 12.071800851130092,488.52619652696285 L 12.605232303588082,488.8373947153345 L 13.174719690576467,489.07630378376484 L 13.770518925012425,489.2388359318546 L 14.382435716808004,489.3222101894878 L 15.0,489.3250000000004 L 35.40000000000009,489.3250000000004 L 35.39999999999998,496.8250000000003 L 15.000000000000227,496.82500000000016 L 14.382435716808118,496.82778981051274 L 13.770518925012652,496.911164068146 L 13.17471969057658,497.0736962162358 L 12.605232303588082,497.3126052846661 L 12.07180085113032,497.62380347303787 L 11.583552493249726,498.0019660940676 L 11.148841294717727,498.4406226804629 L 10.775105284665983,498.93226769641217 L 10.468739189845678,499.46848895938274 L 10.234985019079886,500.0401115748965 L 10.07784237103931,500.6373549215182 L 10.000000000000227,501.2500000000004 L 10.0,567.4500000000003 L 10.077842371039196,568.0626450784824 L 10.234985019079772,568.6598884251041 L 10.468739189845564,569.2315110406179 L 10.775105284665756,569.7677323035883 L 11.148841294717613,570.2593773195377 L 11.583552493249499,570.6980339059332 L 12.071800851130092,571.0761965269627 L 12.605232303588082,571.3873947153345 L 13.174719690576467,571.6263037837648 L 13.770518925012425,571.7888359318546 L 14.382435716808004,571.8722101894878 L 15.000000000000114,571.8750000000005 L 35.39999999999998,571.8750000000003 L 35.40000000000009,579.3750000000002 L 15.000000000000114,579.3750000000001 L 14.382435716808118,579.3777898105129 L 13.770518925012539,579.461164068146 L 13.17471969057658,579.623696216236 L 12.605232303588082,579.8626052846662 L 12.071800851130092,580.1738034730377 L 11.583552493249613,580.5519660940673 L 11.148841294717613,580.990622680463 L 10.77510528466587,581.4822676964122 L 10.468739189845564,582.0184889593827 L 10.234985019079886,582.5901115748965 L 10.077842371039424,583.1873549215184 L 10.0,583.8000000000003 L 10.000000000000114,650.0000000000003 L 10.042775693131034,650.6526309611006 L 10.170370868554642,651.2940952255129 L 10.380602337443634,651.9134171618257 L 10.669872981077901,652.5000000000003 L 11.033233298543905,653.043807145044 L 11.464466094067234,653.5355339059331 L 11.956192854956498,653.9667667014564 L 12.500000000000114,654.3301270189224 L 13.08658283817465,654.6193976625567 L 13.705904774487522,654.8296291314457 L 14.347369038899842,654.9572243068694 L 15.0,655.0000000000002 L 116.92984943197257,654.9812993400787 L 117.2891809793449,654.8651405526923 L 117.62745281490118,654.6972590763662 L 117.93726735336543,654.4813262706599 L 118.21184933523648,654.2220643180794 L 118.44519399330454,653.9251429558045 L 118.6321983694595,653.5970554855729 L 120.13979602322388,646.4522772101664 L 101.49021902722245,642.5669486693328 L 121.19219997444179,547.99744012268 L 121.24761067863824,547.3906473209411 L 121.22334498270152,546.7818131675112 L 121.11981807941629,546.1813549835567 L 120.93880134280164,545.5995467750832 L 120.68339201940773,545.0463434418455 L 120.35796023357102,544.5312104462522 L 119.96807421337394,544.0629618566797 L 119.52040501671843,543.6496095363187 L 119.02261238767721,543.2982260579735 L 118.483213696147,543.0148236903806 L 117.91143820328955,542.8042515266231 L 117.31706914631377,542.670112514805 L 97.22859488755216,538.4850137108963 L 98.75825179339222,531.1426605628643 L 118.61217865992501,535.2788953267253 L 119.22399628607411,535.4109700366704 L 119.84781893659522,535.4620566040885 L 120.47297283298167,535.4312809236471 L 121.08876141874077,535.3191695757716 L 121.68464838044144,535.127640816707 L 122.25043792695794,534.8599717566225 L 122.77644924228275,534.5207422873484 L 123.25368212697288,534.115756719156 L 123.67397099405719,533.6519444674004 L 124.03012458449405,533.137241488302 L 124.3160490116062,532.580454492536 L 124.52685202917303,531.9911102599702 L 143.20906170583226,442.3165038120055 L 143.2644724100287,441.70971101026646 L 143.24020671409187,441.10087685683675 L 143.13667981080675,440.500418672882 L 142.9556630741921,439.9186104644086 L 142.7002537507983,439.36540713117085 L 142.37482196496148,438.8502741355775 L 141.9849359447644,438.38202554600514 L 141.53726674810912,437.96867322564407 L 141.03947411906768,437.61728974729886 L 140.50007542753758,437.3338873797058 L 139.92829993468,437.1233152159485 L 139.33393087770423,436.98917620413044 L 119.24545661894297,432.8040774002219 L 120.78020352895464,425.4372922321662 L 140.62904039131547,429.5979590160508 L 141.24085801746457,429.73003372599595 L 141.8646806679859,429.781120293414 L 142.48983456437213,429.7503446129728 L 143.10562315013135,429.63823326509714 L 143.70151011183202,429.44670450603246 L 144.2672996583484,429.1790354459482 L 144.79331097367321,428.8398059766741 L 145.27054385836334,428.43482040848176 L 145.69083272544776,427.97100815672604 L 146.04698631588462,427.45630517762766 L 146.3329107429969,426.89951818186154 L 146.54371376056372,426.31017394929586 L 161.35833333333346,355.20000000000033 L 161.3253073849071,354.62012092999083 L 161.22665665440195,354.04774126361957 L 161.0636569623906,353.4902634169668 L 160.83841633543716,352.9548970853078 L 160.5538477436147,352.4485660022675 L 160.2136314279311,351.97781839723154 L 159.8221673048646,351.54874230904187 L 159.3845180635525,351.1668868512003 L 158.9063436915377,350.8371904468332 L 158.39382827583154,350.5639169615328 L 157.85360002595587,350.3506005600519 L 157.2926455532786,350.2000000000002 "
  />
  <path id="face0-interior"
 style="fill:none;stroke:#FF0000;stroke-width:1;stroke-miterlimit:4;stroke-dasharray:none;stroke-linejoin:round;stroke-linecap:round"
        d="M 48.099999999999454,10.0 M 10.0,10.000000000000005 M 10.0,340.20000000000016 M 48.100000000000136,340.2000000000002 M 48.10000000000002,338.8500000000002 M 48.0572243068691,338.1973690389008 M 47.92962913144538,337.55590477448806 M 47.7193976625565,336.93658283817524 M 47.430127018922235,336.35 M 47.06676670145623,335.8061928549564 M 46.63553390593279,335.31446609406777 M 46.14380714504375,334.8832332985447 M 45.60000000000002,334.5198729810782 M 45.01341716182549,334.2306023374446 M 44.39409522551273,334.0203708685549 M 43.752630961100294,333.89277569313106 M 43.100000000000136,333.8500000000006 M 35.40000000000009,333.8500000000006 M 35.40000000000009,326.3500000000005 M 43.10000000000002,326.3500000000004 M 43.68249760528374,326.38719607210686 M 44.26486692446235,326.3480427322642 M 44.837143457021625,326.2332099049731 M 45.38953539282397,326.044662411747 M 45.91259115269622,325.78562635246914 M 46.39736110756826,325.4605339059334 M 46.8355507091087,325.0749474940316 M 47.219662411746185,324.63546460717663 M 47.54312395775253,324.1496049194101 M 47.80040083039523,323.6256816246953 M 47.98709095105244,323.07265919586445 M 48.09999999999991,322.49999999999994 M 48.100000000000136,183.27500000000038 M 47.98099239837313,182.70929487067934 M 47.789163586825794,182.16396303624595 M 47.5277958095088,181.6483352755836 M 47.20136114155707,181.17123412263567 M 46.81544497064385,180.7408229104052 M 46.37665042944957,180.36446609406727 M 45.89248541423126,180.04860324309587 M 45.371234122634746,179.79863885844293 M 44.821815308777786,179.6188499000353 M 44.253629680892914,179.51231260679643 M 43.67639905260421,179.48084986135225 M 43.100000000000136,179.52500000000055 M 35.40000000000009,179.52500000000035 M 35.40000000000009,172.02500000000023 M 43.100000000000136,172.02500000000043 M 43.75872951378017,171.9752702403268 M 44.405332469082396,171.83998447050539 M 45.02874531006944,171.62145746756354 M 45.61830127018948,171.32342828911152 M 46.16391288350883,170.95099629702025 M 46.65624458405159,170.5105339059331 M 47.08687243992131,170.00957754947925 M 47.448428289111575,169.45669872981117 M 47.734725810800455,168.86135735681796 M 47.94086637501516,168.23373988645386 M 48.063322859548975,167.58458502764304 M 48.10000000000025,166.92500000000032 M 48.10000000000025,27.700000000000127 M 47.98709095105278,27.127340804136146 M 47.80040083039535,26.574318375305037 M 47.543123957752755,26.050395080590395 M 47.21966241174641,25.564535392824123 M 46.83555070910893,25.125052505969133 M 46.397361107568486,24.739466094067204 M 45.912591152696336,24.414373647531555 M 45.3895353928242,24.155337588253772 M 44.83714345702174,23.966790095027537 M 44.264866924462694,23.85195726773682 M 43.68249760528397,23.812803927894066 M 43.100000000000136,23.84999999999992 M 35.40000000000009,23.84999999999983 M 35.40000000000009,16.34999999999991 M 43.100000000000136,16.34999999999982 M 43.75263096110041,16.3072243068688 M 44.39409522551273,16.179629131445335 M 45.0134171618256,15.969397662556062 M 45.600000000000136,15.680127018921905 M 46.14380714504375,15.316766701455935 M 46.6355339059329,14.885533905932576 M 47.066766701456345,14.393807145043116 M 47.43012701892235,13.849999999999664 M 47.7193976625565,13.263417161825288 M 47.929629131445495,12.644095225512453 M 48.057224306869216,12.002630961100092 M 48.100000000000136,11.349999999999604 "
  />
  <path id="face1-interior"
 style="fill:none;stroke:#FF0000;stroke-width:1;stroke-miterlimit:4;stroke-dasharray:none;stroke-linejoin:round;stroke-linecap:round"
        d="M 157.2926455532786,350.2000000000002 M 15.000000000000114,350.2000000000002 M 14.347362638688764,350.2000000000002 M 13.705904774487522,350.37037086854957 M 13.08658283817465,350.5806023374467 M 12.5,350.86987298108096 M 11.956192854956498,351.23323329854384 M 11.464466094067348,351.664466094066 M 11.033233298543905,352.1561928549558 M 10.669872981077901,352.700000000001 M 10.380602337443634,353.286582838175 M 10.170370868554755,353.90590477448836 M 10.042775693131034,354.5473690389005 M 10.0,355.2000000000001 M 10.0,402.35000000000036 M 10.077842371039196,402.9626450784824 M 10.234985019079772,403.55988842510413 M 10.468739189845564,404.131511040618 M 10.775105284665756,404.6677323035884 M 11.148841294717613,405.1593773195376 M 11.583552493249385,405.5980339059331 M 12.071800851130092,405.9761965269629 M 12.605232303588082,406.2873947153346 M 13.174719690576467,406.5263037837649 M 13.770518925012425,406.68883593185456 M 14.382435716808004,406.7722101894878 M 15.0,406.7750000000004 M 35.39999999999998,406.7750000000003 M 35.39999999999998,414.2750000000002 M 15.000000000000114,414.2750000000002 M 14.382435716808118,414.27778981051296 M 13.770518925012539,414.36116406814614 M 13.17471969057658,414.52369621623603 M 12.605232303588082,414.7626052846661 M 12.071800851130206,415.07380347303786 M 11.583552493249613,415.45196609406764 M 11.148841294717613,415.890622680463 M 10.77510528466587,416.3822676964123 M 10.468739189845564,416.9184889593829 M 10.234985019079886,417.49011157489656 M 10.07784237103931,418.08735492151834 M 10.0,418.70000000000044 M 10.0,484.9000000000004 M 10.077842371039196,485.5126450784824 M 10.234985019079886,486.10988842510415 M 10.46873918984545,486.68151104061786 M 10.775105284665756,487.21773230358843 M 11.148841294717613,487.7093773195377 M 11.583552493249499,488.1480339059331 M 12.071800851130092,488.52619652696285 M 12.605232303588082,488.8373947153345 M 13.174719690576467,489.07630378376484 M 13.770518925012425,489.2388359318546 M 14.382435716808004,489.3222101894878 M 15.0,489.3250000000004 M 35.40000000000009,489.3250000000004 M 35.39999999999998,496.8250000000003 M 15.000000000000227,496.82500000000016 M 14.382435716808118,496.82778981051274 M 13.770518925012652,496.911164068146 M 13.17471969057658,497.0736962162358 M 12.605232303588082,497.3126052846661 M 12.07180085113032,497.62380347303787 M 11.583552493249726,498.0019660940676 M 11.148841294717727,498.4406226804629 M 10.775105284665983,498.93226769641217 M 10.468739189845678,499.46848895938274 M 10.234985019079886,500.0401115748965 M 10.07784237103931,500.6373549215182 M 10.000000000000227,501.2500000000004 M 10.0,567.4500000000003 M 10.077842371039196,568.0626450784824 M 10.234985019079772,568.6598884251041 M 10.468739189845564,569.2315110406179 M 10.775105284665756,569.7677323035883 M 11.148841294717613,570.2593773195377 M 11.583552493249499,570.6980339059332 M 12.071800851130092,571.0761965269627 M 12.605232303588082,571.3873947153345 M 13.174719690576467,571.6263037837648 M 13.770518925012425,571.7888359318546 M 14.382435716808004,571.8722101894878 M 15.000000000000114,571.8750000000005 M 35.39999999999998,571.8750000000003 M 35.40000000000009,579.3750000000002 M 15.000000000000114,579.3750000000001 M 14.382435716808118,579.3777898105129 M 13.770518925012539,579.461164068146 M 13.17471969057658,579.623696216236 M 12.605232303588082,579.8626052846662 M 12.071800851130092,580.1738034730377 M 11.583552493249613,580.5519660940673 M 11.148841294717613,580.990622680463 M 10.77510528466587,581.4822676964122 M 10.468739189845564,582.0184889593827 M 10.234985019079886,582.5901115748965 M 10.077842371039424,583.1873549215184 M 10.0,583.8000000000003 M 10.000000000000114,650.0000000000003 M 10.042775693131034,650.6526309611006 M 10.170370868554642,651.2940952255129 M 10.380602337443634,651.9134171618257 M 10.669872981077901,652.5000000000003 M 11.033233298543905,653.043807145044 M 11.464466094067234,653.5355339059331 M 11.956192854956498,653.9667667014564 M 12.500000000000114,654.3301270189224 M 13.08658283817465,654.6193976625567 M 13.705904774487522,654.8296291314457 M 14.347369038899842,654.9572243068694 M 15.0,655.0000000000002 M 116.92984943197257,654.9812993400787 M 117.2891809793449,654.8651405526923 M 117.62745281490118,654.6972590763662 M 117.93726735336543,654.4813262706599 M 118.21184933523648,654.2220643180794 M 118.44519399330454,653.9251429558045 M 118.6321983694595,653.5970554855729 M 120.13979602322388,646.4522772101664 M 101.49021902722245,642.5669486693328 M 121.19219997444179,547.99744012268 M 121.24761067863824,547.3906473209411 M 121.22334498270152,546.7818131675112 M 121.11981807941629,546.1813549835567 M 120.93880134280164,545.5995467750832 M 120.68339201940773,545.0463434418455 M 120.35796023357102,544.5312104462522 M 119.96807421337394,544.0629618566797 M 119.52040501671843,543.6496095363187 M 119.02261238767721,543.2982260579735 M 118.483213696147,543.0148236903806 M 117.91143820328955,542.8042515266231 M 117.31706914631377,542.670112514805 M 97.22859488755216,538.4850137108963 M 98.75825179339222,531.1426605628643 M 118.61217865992501,535.2788953267253 M 119.22399628607411,535.4109700366704 M 119.84781893659522,535.4620566040885 M 120.47297283298167,535.4312809236471 M 121.08876141874077,535.3191695757716 M 121.68464838044144,535.127640816707 M 122.25043792695794,534.8599717566225 M 122.77644924228275,534.5207422873484 M 123.25368212697288,534.115756719156 M 123.67397099405719,533.6519444674004 M 124.03012458449405,533.137241488302 M 124.3160490116062,532.580454492536 M 124.52685202917303,531.9911102599702 M 143.20906170583226,442.3165038120055 M 143.2644724100287,441.70971101026646 M 143.24020671409187,441.10087685683675 M 143.13667981080675,440.500418672882 M 142.9556630741921,439.9186104644086 M 142.7002537507983,439.36540713117085 M 142.37482196496148,438.8502741355775 M 141.9849359447644,438.38202554600514 M 141.53726674810912,437.96867322564407 M 141.03947411906768,437.61728974729886 M 140.50007542753758,437.3338873797058 M 139.92829993468,437.1233152159485 M 139.33393087770423,436.98917620413044 M 119.24545661894297,432.8040774002219 M 120.78020352895464,425.4372922321662 M 140.62904039131547,429.5979590160508 M 141.24085801746457,429.73003372599595 M 141.8646806679859,429.781120293414 M 142.48983456437213,429.7503446129728 M 143.10562315013135,429.63823326509714 M 143.70151011183202,429.44670450603246 M 144.2672996583484,429.1790354459482 M 144.79331097367321,428.8398059766741 M 145.27054385836334,428.43482040848176 M 145.69083272544776,427.97100815672604 M 146.04698631588462,427.45630517762766 M 146.3329107429969,426.89951818186154 M 146.54371376056372,426.31017394929586 M 161.35833333333346,355.20000000000033 M 161.3253073849071,354.62012092999083 M 161.22665665440195,354.04774126361957 M 161.0636569623906,353.4902634169668 M 160.83841633543716,352.9548970853078 M 160.5538477436147,352.4485660022675 M 160.2136314279311,351.97781839723154 M 159.8221673048646,351.54874230904187 M 159.3845180635525,351.1668868512003 M 158.9063436915377,350.8371904468332 M 158.39382827583154,350.5639169615328 M 157.85360002595587,350.3506005600519 "
  />
  <path id="face0-interior"
 style="fill:none;stroke:#00FF00;stroke-width:1;stroke-miterlimit:4;stroke-dasharray:none;stroke-linejoin:round;stroke-linecap:round"
        d="M 48.099999999999454,10.0 M 10.0,10.000000000000005 M 10.0,340.20000000000016 M 48.100000000000136,340.2000000000002 M 48.10000000000002,338.8500000000002 M 48.0572243068691,338.1973690389008 M 47.92962913144538,337.55590477448806 M 47.7193976625565,336.93658283817524 M 47.430127018922235,336.35 M 47.06676670145623,335.8061928549564 M 46.63553390593279,335.31446609406777 M 46.14380714504375,334.8832332985447 M 45.60000000000002,334.5198729810782 M 45.01341716182549,334.2306023374446 M 44.39409522551273,334.0203708685549 M 43.752630961100294,333.89277569313106 M 43.100000000000136,333.8500000000006 M 35.40000000000009,333.8500000000006 M 35.40000000000009,326.3500000000005 M 43.10000000000002,326.3500000000004 M 43.68249760528374,326.38719607210686 M 44.26486692446235,326.3480427322642 M 44.837143457021625,326.2332099049731 M 45.38953539282397,326.044662411747 M 45.91259115269622,325.78562635246914 M 46.39736110756826,325.4605339059334 M 46.8355507091087,325.0749474940316 M 47.219662411746185,324.63546460717663 M 47.54312395775253,324.1496049194101 M 47.80040083039523,323.6256816246953 M 47.98709095105244,323.07265919586445 M 48.09999999999991,322.49999999999994 M 48.100000000000136,183.27500000000038 M 47.98099239837313,182.70929487067934 M 47.789163586825794,182.16396303624595 M 47.5277958095088,181.6483352755836 M 47.20136114155707,181.17123412263567 M 46.81544497064385,180.7408229104052 M 46.37665042944957,180.36446609406727 M 45.89248541423126,180.04860324309587 M 45.371234122634746,179.79863885844293 M 44.821815308777786,179.6188499000353 M 44.253629680892914,179.51231260679643 M 43.67639905260421,179.48084986135225 M 43.100000000000136,179.52500000000055 M 35.40000000000009,179.52500000000035 M 35.40000000000009,172.02500000000023 M 43.100000000000136,172.02500000000043 M 43.75872951378017,171.9752702403268 M 44.405332469082396,171.83998447050539 M 45.02874531006944,171.62145746756354 M 45.61830127018948,171.32342828911152 M 46.16391288350883,170.95099629702025 M 46.65624458405159,170.5105339059331 M 47.08687243992131,170.00957754947925 M 47.448428289111575,169.45669872981117 M 47.734725810800455,168.86135735681796 M 47.94086637501516,168.23373988645386 M 48.063322859548975,167.58458502764304 M 48.10000000000025,166.92500000000032 M 48.10000000000025,27.700000000000127 M 47.98709095105278,27.127340804136146 M 47.80040083039535,26.574318375305037 M 47.543123957752755,26.050395080590395 M 47.21966241174641,25.564535392824123 M 46.83555070910893,25.125052505969133 M 46.397361107568486,24.739466094067204 M 45.912591152696336,24.414373647531555 M 45.3895353928242,24.155337588253772 M 44.83714345702174,23.966790095027537 M 44.264866924462694,23.85195726773682 M 43.68249760528397,23.812803927894066 M 43.100000000000136,23.84999999999992 M 35.40000000000009,23.84999999999983 M 35.40000000000009,16.34999999999991 M 43.100000000000136,16.34999999999982 M 43.75263096110041,16.3072243068688 M 44.39409522551273,16.179629131445335 M 45.0134171618256,15.969397662556062 M 45.600000000000136,15.680127018921905 M 46.14380714504375,15.316766701455935 M 46.6355339059329,14.885533905932576 M 47.066766701456345,14.393807145043116 M 47.43012701892235,13.849999999999664 M 47.7193976625565,13.263417161825288 M 47.929629131445495,12.644095225512453 M 48.057224306869216,12.002630961100092 M 48.100000000000136,11.349999999999604 "
  />
  <path id="face1-interior"
 style="fill:none;stroke:#00FF00;stroke-width:1;stroke-miterlimit:4;stroke-dasharray:none;stroke-linejoin:round;stroke-linecap:round"
        d="M 157.2926455532786,350.2000000000002 M 15.000000000000114,350.2000000000002 M 14.347362638688764,350.2000000000002 M 13.705904774487522,350.37037086854957 M 13.08658283817465,350.5806023374467 M 12.5,350.86987298108096 M 11.956192854956498,351.23323329854384 M 11.464466094067348,351.664466094066 M 11.033233298543905,352.1561928549558 M 10.669872981077901,352.700000000001 M 10.380602337443634,353.286582838175 M 10.170370868554755,353.90590477448836 M 10.042775693131034,354.5473690389005 M 10.0,355.2000000000001 M 10.0,402.35000000000036 M 10.077842371039196,402.9626450784824 M 10.234985019079772,403.55988842510413 M 10.468739189845564,404.131511040618 M 10.775105284665756,404.6677323035884 M 11.148841294717613,405.1593773195376 M 11.583552493249385,405.5980339059331 M 12.071800851130092,405.9761965269629 M 12.605232303588082,406.2873947153346 M 13.174719690576467,406.5263037837649 M 13.770518925012425,406.68883593185456 M 14.382435716808004,406.7722101894878 M 15.0,406.7750000000004 M 35.39999999999998,406.7750000000003 M 35.39999999999998,414.2750000000002 M 15.000000000000114,414.2750000000002 M 14.382435716808118,414.27778981051296 M 13.770518925012539,414.36116406814614 M 13.17471969057658,414.52369621623603 M 12.605232303588082,414.7626052846661 M 12.071800851130206,415.07380347303786 M 11.583552493249613,415.45196609406764 M 11.148841294717613,415.890622680463 M 10.77510528466587,416.3822676964123 M 10.468739189845564,416.9184889593829 M 10.234985019079886,417.49011157489656 M 10.07784237103931,418.08735492151834 M 10.0,418.70000000000044 M 10.0,484.9000000000004 M 10.077842371039196,485.5126450784824 M 10.234985019079886,486.10988842510415 M 10.46873918984545,486.68151104061786 M 10.775105284665756,487.21773230358843 M 11.148841294717613,487.7093773195377 M 11.583552493249499,488.1480339059331 M 12.071800851130092,488.52619652696285 M 12.605232303588082,488.8373947153345 M 13.174719690576467,489.07630378376484 M 13.770518925012425,489.2388359318546 M 14.382435716808004,489.3222101894878 M 15.0,489.3250000000004 M 35.40000000000009,489.3250000000004 M 35.39999999999998,496.8250000000003 M 15.000000000000227,496.82500000000016 M 14.382435716808118,496.82778981051274 M 13.770518925012652,496.911164068146 M 13.17471969057658,497.0736962162358 M 12.605232303588082,497.3126052846661 M 12.07180085113032,497.62380347303787 M 11.583552493249726,498.0019660940676 M 11.148841294717727,498.4406226804629 M 10.775105284665983,498.93226769641217 M 10.468739189845678,499.46848895938274 M 10.234985019079886,500.0401115748965 M 10.07784237103931,500.6373549215182 M 10.000000000000227,501.2500000000004 M 10.0,567.4500000000003 M 10.077842371039196,568.0626450784824 M 10.234985019079772,568.6598884251041 M 10.468739189845564,569.2315110406179 M 10.775105284665756,569.7677323035883 M 11.148841294717613,570.2593773195377 M 11.583552493249499,570.6980339059332 M 12.071800851130092,571.0761965269627 M 12.605232303588082,571.3873947153345 M 13.174719690576467,571.6263037837648 M 13.770518925012425,571.7888359318546 M 14.382435716808004,571.8722101894878 M 15.000000000000114,571.8750000000005 M 35.39999999999998,571.8750000000003 M 35.40000000000009,579.3750000000002 M 15.000000000000114,579.3750000000001 M 14.382435716808118,579.3777898105129 M 13.770518925012539,579.461164068146 M 13.17471969057658,579.623696216236 M 12.605232303588082,579.8626052846662 M 12.071800851130092,580.1738034730377 M 11.583552493249613,580.5519660940673 M 11.148841294717613,580.990622680463 M 10.77510528466587,581.4822676964122 M 10.468739189845564,582.0184889593827 M 10.234985019079886,582.5901115748965 M 10.077842371039424,583.1873549215184 M 10.0,583.8000000000003 M 10.000000000000114,650.0000000000003 M 10.042775693131034,650.6526309611006 M 10.170370868554642,651.2940952255129 M 10.380602337443634,651.9134171618257 M 10.669872981077901,652.5000000000003 M 11.033233298543905,653.043807145044 M 11.464466094067234,653.5355339059331 M 11.956192854956498,653.9667667014564 M 12.500000000000114,654.3301270189224 M 13.08658283817465,654.6193976625567 M 13.705904774487522,654.8296291314457 M 14.347369038899842,654.9572243068694 M 15.0,655.0000000000002 M 116.92984943197257,654.9812993400787 M 117.2891809793449,654.8651405526923 M 117.62745281490118,654.6972590763662 M 117.93726735336543,654.4813262706599 M 118.21184933523648,654.2220643180794 M 118.44519399330454,653.9251429558045 M 118.6321983694595,653.5970554855729 M 120.13979602322388,646.4522772101664 M 101.49021902722245,642.5669486693328 M 121.19219997444179,547.99744012268 M 121.24761067863824,547.3906473209411 M 121.22334498270152,546.7818131675112 M 121.11981807941629,546.1813549835567 M 120.93880134280164,545.5995467750832 M 120.68339201940773,545.0463434418455 M 120.35796023357102,544.5312104462522 M 119.96807421337394,544.0629618566797 M 119.52040501671843,543.6496095363187 M 119.02261238767721,543.2982260579735 M 118.483213696147,543.0148236903806 M 117.91143820328955,542.8042515266231 M 117.31706914631377,542.670112514805 M 97.22859488755216,538.4850137108963 M 98.75825179339222,531.1426605628643 M 118.61217865992501,535.2788953267253 M 119.22399628607411,535.4109700366704 M 119.84781893659522,535.4620566040885 M 120.47297283298167,535.4312809236471 M 121.08876141874077,535.3191695757716 M 121.68464838044144,535.127640816707 M 122.25043792695794,534.8599717566225 M 122.77644924228275,534.5207422873484 M 123.25368212697288,534.115756719156 M 123.67397099405719,533.6519444674004 M 124.03012458449405,533.137241488302 M 124.3160490116062,532.580454492536 M 124.52685202917303,531.9911102599702 M 143.20906170583226,442.3165038120055 M 143.2644724100287,441.70971101026646 M 143.24020671409187,441.10087685683675 M 143.13667981080675,440.500418672882 M 142.9556630741921,439.9186104644086 M 142.7002537507983,439.36540713117085 M 142.37482196496148,438.8502741355775 M 141.9849359447644,438.38202554600514 M 141.53726674810912,437.96867322564407 M 141.03947411906768,437.61728974729886 M 140.50007542753758,437.3338873797058 M 139.92829993468,437.1233152159485 M 139.33393087770423,436.98917620413044 M 119.24545661894297,432.8040774002219 M 120.78020352895464,425.4372922321662 M 140.62904039131547,429.5979590160508 M 141.24085801746457,429.73003372599595 M 141.8646806679859,429.781120293414 M 142.48983456437213,429.7503446129728 M 143.10562315013135,429.63823326509714 M 143.70151011183202,429.44670450603246 M 144.2672996583484,429.1790354459482 M 144.79331097367321,428.8398059766741 M 145.27054385836334,428.43482040848176 M 145.69083272544776,427.97100815672604 M 146.04698631588462,427.45630517762766 M 146.3329107429969,426.89951818186154 M 146.54371376056372,426.31017394929586 M 161.35833333333346,355.20000000000033 M 161.3253073849071,354.62012092999083 M 161.22665665440195,354.04774126361957 M 161.0636569623906,353.4902634169668 M 160.83841633543716,352.9548970853078 M 160.5538477436147,352.4485660022675 M 160.2136314279311,351.97781839723154 M 159.8221673048646,351.54874230904187 M 159.3845180635525,351.1668868512003 M 158.9063436915377,350.8371904468332 M 158.39382827583154,350.5639169615328 M 157.85360002595587,350.3506005600519 "
  />
</svg>
